<?xml version="1.0" encoding="utf-8"?>
<!-- Generator: Adobe Illustrator 16.0.0, SVG Export Plug-In . SVG Version: 6.00 Build 0)  -->
<!DOCTYPE svg PUBLIC "-//W3C//DTD SVG 1.1//EN" "http://www.w3.org/Graphics/SVG/1.1/DTD/svg11.dtd">
<svg version="1.1" id="Capa_1" xmlns="http://www.w3.org/2000/svg" xmlns:xlink="http://www.w3.org/1999/xlink" x="0px" y="0px"
	 width="720px" height="169.032px" viewBox="0 0 720 169.032" enable-background="new 0 0 720 169.032" xml:space="preserve">
<g>
	<path fill="#FFFFFF" stroke="#000000" stroke-width="2" stroke-miterlimit="10" d="M154.561,135.712l-43.062-0.065L89.611,113.76
		v21.952h-39.63V62.862h33.673L49.981,42.917h72.008c17.267,0,25.902,8.642,25.902,25.92v8.361c0,17.409-8.635,26.049-25.902,25.92
		L154.561,135.712z M108.261,73.028c0-6.777-4.317-10.167-12.951-10.167h-5.699V83.26h5.699
		C103.944,83.26,108.261,79.85,108.261,73.028z"/>
	<path fill="#FFFFFF" stroke="#000000" stroke-width="2" stroke-miterlimit="10" d="M197.494,111.558v25.061
		c-1.986,0.346-3.799,0.518-5.439,0.518c-9.713,0-17.808-3.194-24.283-9.583c-6.476-6.39-9.713-14.397-9.713-24.024
		c0-9.368,3.27-17.312,9.811-23.831c6.54-6.519,14.494-9.778,23.862-9.778c10.447,0,18.682,3.054,24.704,9.163
		c6.022,6.109,9.034,14.452,9.034,25.028v31.666H201.25V105.86c0-3.411-0.832-6.131-2.493-8.159
		c-1.662-2.029-3.896-3.044-6.702-3.044c-2.548,0-4.75,0.929-6.605,2.785c-1.856,1.855-2.785,4.058-2.785,6.604
		c0,2.677,0.842,4.878,2.525,6.605c1.684,1.727,3.821,2.59,6.411,2.59C193.716,113.242,195.681,112.68,197.494,111.558z"/>
	<path fill="#FFFFFF" stroke="#000000" stroke-width="2" stroke-miterlimit="10" d="M279.345,47.385l24.219-18.419v72.231
		c0,9.887-2.59,17.938-7.771,24.154c-2.979,3.583-6.767,6.433-11.365,8.548s-9.315,3.173-14.149,3.173
		c-9.627,0-17.743-3.237-24.348-9.713c-6.605-6.476-9.908-14.419-9.908-23.83c0-9.109,3.28-16.988,9.843-23.636
		c6.562-6.648,14.333-9.972,23.312-9.972c1.425,0,3.583,0.129,6.476,0.388v26.679c-1.986-1.554-3.973-2.331-5.958-2.331
		c-2.504,0-4.652,0.918-6.443,2.752c-1.792,1.835-2.687,4.048-2.687,6.638c0,2.504,0.928,4.651,2.784,6.443
		c1.855,1.791,4.08,2.688,6.67,2.688c6.217,0,9.325-4.296,9.325-12.887V47.385z"/>
	<path stroke="#FFFFFF" stroke-width="2" stroke-miterlimit="10" d="M409.892,47.385v63.655c0,7.943-2.396,14.419-7.188,19.426
		c-4.792,5.008-10.987,7.512-18.585,7.512c-9.152,0-16.146-4.166-20.98-12.497c-2.979,4.489-6.174,7.694-9.583,9.616
		c-3.41,1.921-7.62,2.881-12.627,2.881c-7.943,0-14.03-2.504-18.261-7.512c-4.232-5.007-6.346-12.217-6.346-21.628V47.385
		l26.291-18.419v75.922c0,2.85,0.227,4.728,0.68,5.634s1.37,1.36,2.752,1.36c2.59,0,3.885-2.181,3.885-6.541V47.385h26.29v57.503
		c0,2.763,0.237,4.619,0.713,5.569c0.475,0.949,1.402,1.425,2.784,1.425c2.59,0,3.885-2.332,3.885-6.994V28.966L409.892,47.385z"/>
	<path stroke="#FFFFFF" stroke-width="2" stroke-miterlimit="10" d="M454.638,69.855c9.152,0,16.999,3.292,23.539,9.875
		c6.54,6.583,9.811,14.473,9.811,23.668c0,9.325-3.313,17.269-9.94,23.83s-14.624,9.843-23.992,9.843
		c-9.367,0-17.376-3.292-24.023-9.875c-6.648-6.584-9.973-14.517-9.973-23.798c0-9.454,3.324-17.408,9.973-23.862
		C436.679,73.083,444.881,69.855,454.638,69.855z M453.99,93.75c-2.59,0-4.792,0.938-6.605,2.816
		c-1.813,1.878-2.719,4.177-2.719,6.896c0,2.677,0.917,4.965,2.752,6.864c1.834,1.899,4.025,2.85,6.572,2.85
		c2.59,0,4.803-0.95,6.638-2.85s2.752-4.188,2.752-6.864c0-2.72-0.906-5.019-2.72-6.896S456.624,93.75,453.99,93.75z"/>
	<path stroke="#FFFFFF" stroke-width="2" stroke-miterlimit="10" d="M533.51,70.568V96.47c-1.684-0.95-3.216-1.425-4.598-1.425
		c-4.403,0-6.604,3.367-6.604,10.102v30.63h-24.219v-35.292c0-9.325,2.547-16.761,7.642-22.308
		c5.094-5.547,11.893-8.321,20.397-8.321C528.027,69.855,530.488,70.093,533.51,70.568z"/>
	<path stroke="#FFFFFF" stroke-width="2" stroke-miterlimit="10" d="M564.852,47.385v88.392h-24.218V28.966L564.852,47.385z
		 M601.957,71.215l-11.851,23.506l17.613,41.056h-26.809l-15.152-42.156l11.008-22.405H601.957z"/>
	<path stroke="#FFFFFF" stroke-width="2" stroke-miterlimit="10" d="M596.118,111.882h9.954c3.886,0,6.659-0.81,8.321-2.429
		s2.623-4.457,2.882-8.516c0.346-6.604,0.961-11.246,1.846-13.922c0.885-2.677,2.688-5.332,5.407-7.965
		c4.748-4.619,11.332-6.929,19.75-6.929h25.737l-18.42,25.513c-3.41,0-9.437,0.637-10.71,1.911
		c-1.273,1.273-2.083,3.788-2.428,7.544c-1.123,12.476-2.274,21.282-10.821,26.42c-4.533,2.677-10.966,3.015-19.298,3.015
		l-15.357-0.748"/>
</g>
</svg>
